<svg width="532" height="396" viewBox="0 0 532 396" fill="none" xmlns="http://www.w3.org/2000/svg">
<g clip-path="url(#clip0_352_43)">
<rect y="86" width="532" height="310" rx="20" fill="#F5FAFF"/>
<rect x="16" y="177.25" width="500" height="80" rx="12.5" fill="white"/>
<rect x="16.75" y="178" width="498.5" height="78.5" rx="11.75" stroke="black" stroke-opacity="0.12" stroke-width="1.5"/>
<rect x="359.75" y="183.5" width="150" height="67.5" rx="6.25" fill="#7392F9"/>
<path d="M384.76 210.35V219.21C384.76 220.263 385.033 221.057 385.58 221.59C386.14 222.123 386.913 222.39 387.9 222.39C388.9 222.39 389.673 222.123 390.22 221.59C390.78 221.057 391.06 220.263 391.06 219.21V210.35H393.34V219.17C393.34 220.303 393.093 221.263 392.6 222.05C392.107 222.837 391.447 223.423 390.62 223.81C389.793 224.197 388.88 224.39 387.88 224.39C386.88 224.39 385.967 224.197 385.14 223.81C384.327 223.423 383.68 222.837 383.2 222.05C382.72 221.263 382.48 220.303 382.48 219.17V210.35H384.76ZM398.589 214.85C398.975 214.343 399.502 213.917 400.169 213.57C400.835 213.223 401.589 213.05 402.429 213.05C403.389 213.05 404.262 213.29 405.049 213.77C405.849 214.237 406.475 214.897 406.929 215.75C407.382 216.603 407.609 217.583 407.609 218.69C407.609 219.797 407.382 220.79 406.929 221.67C406.475 222.537 405.849 223.217 405.049 223.71C404.262 224.19 403.389 224.43 402.429 224.43C401.589 224.43 400.842 224.263 400.189 223.93C399.535 223.583 399.002 223.157 398.589 222.65V229.49H396.309V213.23H398.589V214.85ZM405.289 218.69C405.289 217.93 405.129 217.277 404.809 216.73C404.502 216.17 404.089 215.75 403.569 215.47C403.062 215.177 402.515 215.03 401.929 215.03C401.355 215.03 400.809 215.177 400.289 215.47C399.782 215.763 399.369 216.19 399.049 216.75C398.742 217.31 398.589 217.97 398.589 218.73C398.589 219.49 398.742 220.157 399.049 220.73C399.369 221.29 399.782 221.717 400.289 222.01C400.809 222.303 401.355 222.45 401.929 222.45C402.515 222.45 403.062 222.303 403.569 222.01C404.089 221.703 404.502 221.263 404.809 220.69C405.129 220.117 405.289 219.45 405.289 218.69ZM412.143 209.45V224.25H409.863V209.45H412.143ZM419.917 224.43C418.877 224.43 417.937 224.197 417.097 223.73C416.257 223.25 415.597 222.583 415.117 221.73C414.637 220.863 414.397 219.863 414.397 218.73C414.397 217.61 414.643 216.617 415.137 215.75C415.63 214.883 416.303 214.217 417.157 213.75C418.01 213.283 418.963 213.05 420.017 213.05C421.07 213.05 422.023 213.283 422.877 213.75C423.73 214.217 424.403 214.883 424.897 215.75C425.39 216.617 425.637 217.61 425.637 218.73C425.637 219.85 425.383 220.843 424.877 221.71C424.37 222.577 423.677 223.25 422.797 223.73C421.93 224.197 420.97 224.43 419.917 224.43ZM419.917 222.45C420.503 222.45 421.05 222.31 421.557 222.03C422.077 221.75 422.497 221.33 422.817 220.77C423.137 220.21 423.297 219.53 423.297 218.73C423.297 217.93 423.143 217.257 422.837 216.71C422.53 216.15 422.123 215.73 421.617 215.45C421.11 215.17 420.563 215.03 419.977 215.03C419.39 215.03 418.843 215.17 418.337 215.45C417.843 215.73 417.45 216.15 417.157 216.71C416.863 217.257 416.717 217.93 416.717 218.73C416.717 219.917 417.017 220.837 417.617 221.49C418.23 222.13 418.997 222.45 419.917 222.45ZM427.131 218.69C427.131 217.583 427.357 216.603 427.811 215.75C428.277 214.897 428.904 214.237 429.691 213.77C430.491 213.29 431.371 213.05 432.331 213.05C433.197 213.05 433.951 213.223 434.591 213.57C435.244 213.903 435.764 214.323 436.151 214.83V213.23H438.451V224.25H436.151V222.61C435.764 223.13 435.237 223.563 434.571 223.91C433.904 224.257 433.144 224.43 432.291 224.43C431.344 224.43 430.477 224.19 429.691 223.71C428.904 223.217 428.277 222.537 427.811 221.67C427.357 220.79 427.131 219.797 427.131 218.69ZM436.151 218.73C436.151 217.97 435.991 217.31 435.671 216.75C435.364 216.19 434.957 215.763 434.451 215.47C433.944 215.177 433.397 215.03 432.811 215.03C432.224 215.03 431.677 215.177 431.171 215.47C430.664 215.75 430.251 216.17 429.931 216.73C429.624 217.277 429.471 217.93 429.471 218.69C429.471 219.45 429.624 220.117 429.931 220.69C430.251 221.263 430.664 221.703 431.171 222.01C431.691 222.303 432.237 222.45 432.811 222.45C433.397 222.45 433.944 222.303 434.451 222.01C434.957 221.717 435.364 221.29 435.671 220.73C435.991 220.157 436.151 219.49 436.151 218.73ZM440.685 218.69C440.685 217.583 440.912 216.603 441.365 215.75C441.832 214.897 442.459 214.237 443.245 213.77C444.045 213.29 444.932 213.05 445.905 213.05C446.625 213.05 447.332 213.21 448.025 213.53C448.732 213.837 449.292 214.25 449.705 214.77V209.45H452.005V224.25H449.705V222.59C449.332 223.123 448.812 223.563 448.145 223.91C447.492 224.257 446.739 224.43 445.885 224.43C444.925 224.43 444.045 224.19 443.245 223.71C442.459 223.217 441.832 222.537 441.365 221.67C440.912 220.79 440.685 219.797 440.685 218.69ZM449.705 218.73C449.705 217.97 449.545 217.31 449.225 216.75C448.919 216.19 448.512 215.763 448.005 215.47C447.499 215.177 446.952 215.03 446.365 215.03C445.779 215.03 445.232 215.177 444.725 215.47C444.219 215.75 443.805 216.17 443.485 216.73C443.179 217.277 443.025 217.93 443.025 218.69C443.025 219.45 443.179 220.117 443.485 220.69C443.805 221.263 444.219 221.703 444.725 222.01C445.245 222.303 445.792 222.45 446.365 222.45C446.952 222.45 447.499 222.303 448.005 222.01C448.512 221.717 448.919 221.29 449.225 220.73C449.545 220.157 449.705 219.49 449.705 218.73ZM464.815 215.09H462.775V224.25H460.475V215.09H459.175V213.23H460.475V212.45C460.475 211.183 460.809 210.263 461.475 209.69C462.155 209.103 463.215 208.81 464.655 208.81V210.71C463.962 210.71 463.475 210.843 463.195 211.11C462.915 211.363 462.775 211.81 462.775 212.45V213.23H464.815V215.09ZM467.996 211.77C467.583 211.77 467.236 211.63 466.956 211.35C466.676 211.07 466.536 210.723 466.536 210.31C466.536 209.897 466.676 209.55 466.956 209.27C467.236 208.99 467.583 208.85 467.996 208.85C468.396 208.85 468.736 208.99 469.016 209.27C469.296 209.55 469.436 209.897 469.436 210.31C469.436 210.723 469.296 211.07 469.016 211.35C468.736 211.63 468.396 211.77 467.996 211.77ZM469.116 213.23V224.25H466.836V213.23H469.116ZM474.389 209.45V224.25H472.109V209.45H474.389ZM487.483 218.47C487.483 218.883 487.456 219.257 487.403 219.59H478.983C479.049 220.47 479.376 221.177 479.963 221.71C480.549 222.243 481.269 222.51 482.123 222.51C483.349 222.51 484.216 221.997 484.723 220.97H487.183C486.849 221.983 486.243 222.817 485.363 223.47C484.496 224.11 483.416 224.43 482.123 224.43C481.069 224.43 480.123 224.197 479.283 223.73C478.456 223.25 477.803 222.583 477.323 221.73C476.856 220.863 476.623 219.863 476.623 218.73C476.623 217.597 476.849 216.603 477.303 215.75C477.769 214.883 478.416 214.217 479.243 213.75C480.083 213.283 481.043 213.05 482.123 213.05C483.163 213.05 484.089 213.277 484.903 213.73C485.716 214.183 486.349 214.823 486.803 215.65C487.256 216.463 487.483 217.403 487.483 218.47ZM485.103 217.75C485.089 216.91 484.789 216.237 484.203 215.73C483.616 215.223 482.889 214.97 482.023 214.97C481.236 214.97 480.563 215.223 480.003 215.73C479.443 216.223 479.109 216.897 479.003 217.75H485.103Z" fill="white"/>
<path d="M28.6225 152.77C28.6225 153.565 28.435 154.315 28.06 155.02C27.685 155.725 27.085 156.302 26.26 156.752C25.435 157.187 24.3775 157.405 23.0875 157.405H20.2525V163.75H17.6875V148.112H23.0875C24.2875 148.112 25.3 148.322 26.125 148.742C26.965 149.147 27.5875 149.702 27.9925 150.407C28.4125 151.112 28.6225 151.9 28.6225 152.77ZM23.0875 155.312C24.0625 155.312 24.79 155.095 25.27 154.66C25.75 154.21 25.99 153.58 25.99 152.77C25.99 151.06 25.0225 150.205 23.0875 150.205H20.2525V155.312H23.0875ZM30.2138 157.495C30.2138 156.25 30.4688 155.147 30.9788 154.187C31.5038 153.227 32.2088 152.485 33.0938 151.96C33.9938 151.42 34.9838 151.15 36.0638 151.15C37.0388 151.15 37.8863 151.345 38.6063 151.735C39.3413 152.11 39.9263 152.582 40.3613 153.152V151.353H42.9488V163.75H40.3613V161.905C39.9263 162.49 39.3338 162.977 38.5838 163.367C37.8338 163.758 36.9788 163.953 36.0188 163.953C34.9538 163.953 33.9788 163.683 33.0938 163.142C32.2088 162.587 31.5038 161.822 30.9788 160.847C30.4688 159.857 30.2138 158.74 30.2138 157.495ZM40.3613 157.54C40.3613 156.685 40.1813 155.942 39.8213 155.312C39.4763 154.682 39.0188 154.202 38.4488 153.872C37.8788 153.542 37.2638 153.377 36.6038 153.377C35.9438 153.377 35.3288 153.542 34.7588 153.872C34.1888 154.187 33.7238 154.66 33.3638 155.29C33.0188 155.905 32.8463 156.64 32.8463 157.495C32.8463 158.35 33.0188 159.1 33.3638 159.745C33.7238 160.39 34.1888 160.885 34.7588 161.23C35.3438 161.56 35.9588 161.725 36.6038 161.725C37.2638 161.725 37.8788 161.56 38.4488 161.23C39.0188 160.9 39.4763 160.42 39.8213 159.79C40.1813 159.145 40.3613 158.395 40.3613 157.54ZM57.4779 151.353L49.8729 169.578H47.2179L49.7379 163.547L44.8554 151.353H47.7129L51.2004 160.802L54.8229 151.353H57.4779ZM74.4211 151.15C75.3961 151.15 76.2661 151.352 77.0311 151.757C77.8111 152.162 78.4186 152.762 78.8536 153.557C79.3036 154.352 79.5286 155.312 79.5286 156.437V163.75H76.9861V156.82C76.9861 155.71 76.7086 154.862 76.1536 154.277C75.5986 153.677 74.8411 153.377 73.8811 153.377C72.9211 153.377 72.1561 153.677 71.5861 154.277C71.0311 154.862 70.7536 155.71 70.7536 156.82V163.75H68.2111V156.82C68.2111 155.71 67.9336 154.862 67.3786 154.277C66.8236 153.677 66.0661 153.377 65.1061 153.377C64.1461 153.377 63.3811 153.677 62.8111 154.277C62.2561 154.862 61.9786 155.71 61.9786 156.82V163.75H59.4136V151.353H61.9786V152.77C62.3986 152.26 62.9311 151.862 63.5761 151.577C64.2211 151.292 64.9111 151.15 65.6461 151.15C66.6361 151.15 67.5211 151.36 68.3011 151.78C69.0811 152.2 69.6811 152.807 70.1011 153.602C70.4761 152.852 71.0611 152.26 71.8561 151.825C72.6511 151.375 73.5061 151.15 74.4211 151.15ZM94.155 157.247C94.155 157.712 94.125 158.132 94.065 158.507H84.5925C84.6675 159.497 85.035 160.292 85.695 160.892C86.355 161.492 87.165 161.792 88.125 161.792C89.505 161.792 90.48 161.215 91.05 160.06H93.8175C93.4425 161.2 92.76 162.137 91.77 162.872C90.795 163.593 89.58 163.953 88.125 163.953C86.94 163.953 85.875 163.69 84.93 163.165C84 162.625 83.265 161.875 82.725 160.915C82.2 159.94 81.9375 158.815 81.9375 157.54C81.9375 156.265 82.1925 155.147 82.7025 154.187C83.2275 153.212 83.955 152.462 84.885 151.937C85.83 151.412 86.91 151.15 88.125 151.15C89.295 151.15 90.3375 151.405 91.2525 151.915C92.1675 152.425 92.88 153.145 93.39 154.075C93.9 154.99 94.155 156.047 94.155 157.247ZM91.4775 156.437C91.4625 155.492 91.125 154.735 90.465 154.165C89.805 153.595 88.9875 153.31 88.0125 153.31C87.1275 153.31 86.37 153.595 85.74 154.165C85.11 154.72 84.735 155.477 84.615 156.437H91.4775ZM102.934 151.15C103.909 151.15 104.779 151.352 105.544 151.757C106.324 152.162 106.932 152.762 107.367 153.557C107.802 154.352 108.019 155.312 108.019 156.437V163.75H105.477V156.82C105.477 155.71 105.199 154.862 104.644 154.277C104.089 153.677 103.332 153.377 102.372 153.377C101.412 153.377 100.647 153.677 100.077 154.277C99.5217 154.862 99.2442 155.71 99.2442 156.82V163.75H96.6792V151.353H99.2442V152.77C99.6642 152.26 100.197 151.862 100.842 151.577C101.502 151.292 102.199 151.15 102.934 151.15ZM114.284 153.445V160.307C114.284 160.772 114.389 161.11 114.599 161.32C114.824 161.515 115.199 161.612 115.724 161.612H117.299V163.75H115.274C114.119 163.75 113.234 163.48 112.619 162.94C112.004 162.4 111.696 161.522 111.696 160.307V153.445H110.234V151.353H111.696V148.27H114.284V151.353H117.299V153.445H114.284ZM130.66 163.908C129.61 163.908 128.665 163.727 127.825 163.367C126.985 162.992 126.325 162.467 125.845 161.792C125.365 161.117 125.125 160.33 125.125 159.43H127.87C127.93 160.105 128.192 160.66 128.657 161.095C129.137 161.53 129.805 161.747 130.66 161.747C131.545 161.747 132.235 161.537 132.73 161.117C133.225 160.682 133.472 160.127 133.472 159.452C133.472 158.927 133.315 158.5 133 158.17C132.7 157.84 132.317 157.585 131.852 157.405C131.402 157.225 130.772 157.03 129.962 156.82C128.942 156.55 128.11 156.28 127.465 156.01C126.835 155.725 126.295 155.29 125.845 154.705C125.395 154.12 125.17 153.34 125.17 152.365C125.17 151.465 125.395 150.677 125.845 150.002C126.295 149.327 126.925 148.81 127.735 148.45C128.545 148.09 129.482 147.91 130.547 147.91C132.062 147.91 133.3 148.292 134.26 149.057C135.235 149.807 135.775 150.842 135.88 152.162H133.045C133 151.592 132.73 151.105 132.235 150.7C131.74 150.295 131.087 150.092 130.277 150.092C129.542 150.092 128.942 150.28 128.477 150.655C128.012 151.03 127.78 151.57 127.78 152.275C127.78 152.755 127.922 153.152 128.207 153.467C128.507 153.767 128.882 154.007 129.332 154.187C129.782 154.367 130.397 154.562 131.177 154.772C132.212 155.057 133.052 155.342 133.697 155.627C134.357 155.912 134.912 156.355 135.362 156.955C135.827 157.54 136.06 158.327 136.06 159.317C136.06 160.112 135.842 160.862 135.407 161.567C134.987 162.272 134.365 162.842 133.54 163.277C132.73 163.697 131.77 163.908 130.66 163.908ZM138.231 157.54C138.231 156.265 138.486 155.147 138.996 154.187C139.521 153.212 140.241 152.462 141.156 151.937C142.071 151.412 143.121 151.15 144.306 151.15C145.806 151.15 147.044 151.51 148.019 152.23C149.009 152.935 149.676 153.947 150.021 155.267H147.254C147.029 154.652 146.669 154.172 146.174 153.827C145.679 153.482 145.056 153.31 144.306 153.31C143.256 153.31 142.416 153.685 141.786 154.435C141.171 155.17 140.864 156.205 140.864 157.54C140.864 158.875 141.171 159.917 141.786 160.667C142.416 161.417 143.256 161.792 144.306 161.792C145.791 161.792 146.774 161.14 147.254 159.835H150.021C149.661 161.095 148.986 162.1 147.996 162.85C147.006 163.585 145.776 163.953 144.306 163.953C143.121 163.953 142.071 163.69 141.156 163.165C140.241 162.625 139.521 161.875 138.996 160.915C138.486 159.94 138.231 158.815 138.231 157.54ZM155.143 153.152C155.518 152.522 156.013 152.035 156.628 151.69C157.258 151.33 158 151.15 158.855 151.15V153.805H158.203C157.198 153.805 156.433 154.06 155.908 154.57C155.398 155.08 155.143 155.965 155.143 157.225V163.75H152.578V151.353H155.143V153.152ZM172.575 157.247C172.575 157.712 172.545 158.132 172.485 158.507H163.013C163.088 159.497 163.455 160.292 164.115 160.892C164.775 161.492 165.585 161.792 166.545 161.792C167.925 161.792 168.9 161.215 169.47 160.06H172.238C171.863 161.2 171.18 162.137 170.19 162.872C169.215 163.593 168 163.953 166.545 163.953C165.36 163.953 164.295 163.69 163.35 163.165C162.42 162.625 161.685 161.875 161.145 160.915C160.62 159.94 160.358 158.815 160.358 157.54C160.358 156.265 160.613 155.147 161.123 154.187C161.648 153.212 162.375 152.462 163.305 151.937C164.25 151.412 165.33 151.15 166.545 151.15C167.715 151.15 168.758 151.405 169.673 151.915C170.588 152.425 171.3 153.145 171.81 154.075C172.32 154.99 172.575 156.047 172.575 157.247ZM169.898 156.437C169.883 155.492 169.545 154.735 168.885 154.165C168.225 153.595 167.408 153.31 166.433 153.31C165.548 153.31 164.79 153.595 164.16 154.165C163.53 154.72 163.155 155.477 163.035 156.437H169.898ZM186.462 157.247C186.462 157.712 186.432 158.132 186.372 158.507H176.9C176.975 159.497 177.342 160.292 178.002 160.892C178.662 161.492 179.472 161.792 180.432 161.792C181.812 161.792 182.787 161.215 183.357 160.06H186.125C185.75 161.2 185.067 162.137 184.077 162.872C183.102 163.593 181.887 163.953 180.432 163.953C179.247 163.953 178.182 163.69 177.237 163.165C176.307 162.625 175.572 161.875 175.032 160.915C174.507 159.94 174.245 158.815 174.245 157.54C174.245 156.265 174.5 155.147 175.01 154.187C175.535 153.212 176.262 152.462 177.192 151.937C178.137 151.412 179.217 151.15 180.432 151.15C181.602 151.15 182.645 151.405 183.56 151.915C184.475 152.425 185.187 153.145 185.697 154.075C186.207 154.99 186.462 156.047 186.462 157.247ZM183.785 156.437C183.77 155.492 183.432 154.735 182.772 154.165C182.112 153.595 181.295 153.31 180.32 153.31C179.435 153.31 178.677 153.595 178.047 154.165C177.417 154.72 177.042 155.477 176.922 156.437H183.785ZM195.241 151.15C196.216 151.15 197.086 151.352 197.851 151.757C198.631 152.162 199.239 152.762 199.674 153.557C200.109 154.352 200.326 155.312 200.326 156.437V163.75H197.784V156.82C197.784 155.71 197.506 154.862 196.951 154.277C196.396 153.677 195.639 153.377 194.679 153.377C193.719 153.377 192.954 153.677 192.384 154.277C191.829 154.862 191.551 155.71 191.551 156.82V163.75H188.986V151.353H191.551V152.77C191.971 152.26 192.504 151.862 193.149 151.577C193.809 151.292 194.506 151.15 195.241 151.15ZM208.098 163.953C207.123 163.953 206.246 163.78 205.466 163.435C204.701 163.075 204.093 162.595 203.643 161.995C203.193 161.38 202.953 160.697 202.923 159.947H205.578C205.623 160.472 205.871 160.915 206.321 161.275C206.786 161.62 207.363 161.792 208.053 161.792C208.773 161.792 209.328 161.657 209.718 161.387C210.123 161.102 210.326 160.742 210.326 160.307C210.326 159.842 210.101 159.497 209.651 159.272C209.216 159.047 208.518 158.8 207.558 158.53C206.628 158.275 205.871 158.027 205.286 157.787C204.701 157.547 204.191 157.18 203.756 156.685C203.336 156.19 203.126 155.537 203.126 154.727C203.126 154.067 203.321 153.467 203.711 152.927C204.101 152.372 204.656 151.937 205.376 151.622C206.111 151.307 206.951 151.15 207.896 151.15C209.306 151.15 210.438 151.51 211.293 152.23C212.163 152.935 212.628 153.902 212.688 155.132H210.123C210.078 154.577 209.853 154.135 209.448 153.805C209.043 153.475 208.496 153.31 207.806 153.31C207.131 153.31 206.613 153.437 206.253 153.692C205.893 153.947 205.713 154.285 205.713 154.705C205.713 155.035 205.833 155.312 206.073 155.537C206.313 155.762 206.606 155.942 206.951 156.077C207.296 156.197 207.806 156.355 208.481 156.55C209.381 156.79 210.116 157.037 210.686 157.292C211.271 157.532 211.773 157.892 212.193 158.372C212.613 158.852 212.831 159.49 212.846 160.285C212.846 160.99 212.651 161.62 212.261 162.175C211.871 162.73 211.316 163.165 210.596 163.48C209.891 163.795 209.058 163.953 208.098 163.953ZM222.03 151.15C222.975 151.15 223.815 151.352 224.55 151.757C225.3 152.162 225.885 152.762 226.305 153.557C226.74 154.352 226.957 155.312 226.957 156.437V163.75H224.415V156.82C224.415 155.71 224.137 154.862 223.582 154.277C223.027 153.677 222.27 153.377 221.31 153.377C220.35 153.377 219.585 153.677 219.015 154.277C218.46 154.862 218.182 155.71 218.182 156.82V163.75H215.617V147.1H218.182V152.792C218.617 152.267 219.165 151.862 219.825 151.577C220.5 151.292 221.235 151.15 222.03 151.15ZM235.607 163.953C234.437 163.953 233.379 163.69 232.434 163.165C231.489 162.625 230.747 161.875 230.207 160.915C229.667 159.94 229.397 158.815 229.397 157.54C229.397 156.28 229.674 155.162 230.229 154.187C230.784 153.212 231.542 152.462 232.502 151.937C233.462 151.412 234.534 151.15 235.719 151.15C236.904 151.15 237.977 151.412 238.937 151.937C239.897 152.462 240.654 153.212 241.209 154.187C241.764 155.162 242.042 156.28 242.042 157.54C242.042 158.8 241.757 159.917 241.187 160.892C240.617 161.867 239.837 162.625 238.847 163.165C237.872 163.69 236.792 163.953 235.607 163.953ZM235.607 161.725C236.267 161.725 236.882 161.567 237.452 161.252C238.037 160.937 238.509 160.465 238.869 159.835C239.229 159.205 239.409 158.44 239.409 157.54C239.409 156.64 239.237 155.882 238.892 155.267C238.547 154.637 238.089 154.165 237.519 153.85C236.949 153.535 236.334 153.377 235.674 153.377C235.014 153.377 234.399 153.535 233.829 153.85C233.274 154.165 232.832 154.637 232.502 155.267C232.172 155.882 232.007 156.64 232.007 157.54C232.007 158.875 232.344 159.91 233.019 160.645C233.709 161.365 234.572 161.725 235.607 161.725ZM247.57 153.445V160.307C247.57 160.772 247.675 161.11 247.885 161.32C248.11 161.515 248.485 161.612 249.01 161.612H250.585V163.75H248.56C247.405 163.75 246.52 163.48 245.905 162.94C245.29 162.4 244.982 161.522 244.982 160.307V153.445H243.52V151.353H244.982V148.27H247.57V151.353H250.585V153.445H247.57Z" fill="#363636"/>
<path d="M48.8125 225.25H46.765L38.53 212.762V225.25H36.4825V209.545H38.53L46.765 222.01V209.545H48.8125V225.25ZM57.6803 225.453C56.5253 225.453 55.4753 225.19 54.5303 224.665C53.6003 224.14 52.8653 223.397 52.3253 222.438C51.8003 221.462 51.5378 220.337 51.5378 219.062C51.5378 217.802 51.8078 216.692 52.3478 215.732C52.9028 214.757 53.6528 214.015 54.5978 213.505C55.5428 212.98 56.6003 212.717 57.7703 212.717C58.9403 212.717 59.9978 212.98 60.9428 213.505C61.8878 214.015 62.6303 214.75 63.1703 215.71C63.7253 216.67 64.0028 217.787 64.0028 219.062C64.0028 220.337 63.7178 221.462 63.1478 222.438C62.5928 223.397 61.8353 224.14 60.8753 224.665C59.9153 225.19 58.8503 225.453 57.6803 225.453ZM57.6803 223.652C58.4153 223.652 59.1053 223.48 59.7503 223.135C60.3953 222.79 60.9128 222.272 61.3028 221.582C61.7078 220.892 61.9103 220.052 61.9103 219.062C61.9103 218.072 61.7153 217.232 61.3253 216.542C60.9353 215.852 60.4253 215.342 59.7953 215.012C59.1653 214.667 58.4828 214.495 57.7478 214.495C56.9978 214.495 56.3078 214.667 55.6778 215.012C55.0628 215.342 54.5678 215.852 54.1928 216.542C53.8178 217.232 53.6303 218.072 53.6303 219.062C53.6303 220.067 53.8103 220.915 54.1703 221.605C54.5453 222.295 55.0403 222.812 55.6553 223.157C56.2703 223.487 56.9453 223.652 57.6803 223.652ZM77.7109 214.607H75.1234V225.25H73.0759V214.607H71.4784V212.92H73.0759V212.042C73.0759 210.662 73.4284 209.657 74.1334 209.027C74.8534 208.382 76.0009 208.06 77.5759 208.06V209.77C76.6759 209.77 76.0384 209.95 75.6634 210.31C75.3034 210.655 75.1234 211.232 75.1234 212.042V212.92H77.7109V214.607ZM81.1557 210.917C80.7657 210.917 80.4357 210.782 80.1657 210.512C79.8957 210.242 79.7607 209.912 79.7607 209.522C79.7607 209.132 79.8957 208.802 80.1657 208.532C80.4357 208.262 80.7657 208.127 81.1557 208.127C81.5307 208.127 81.8457 208.262 82.1007 208.532C82.3707 208.802 82.5057 209.132 82.5057 209.522C82.5057 209.912 82.3707 210.242 82.1007 210.512C81.8457 210.782 81.5307 210.917 81.1557 210.917ZM82.1457 212.92V225.25H80.0982V212.92H82.1457ZM87.6828 208.6V225.25H85.6353V208.6H87.6828ZM102.422 218.612C102.422 219.002 102.4 219.415 102.355 219.85H92.4999C92.5749 221.065 92.9874 222.017 93.7374 222.707C94.5024 223.382 95.4249 223.72 96.5049 223.72C97.3899 223.72 98.1249 223.517 98.7099 223.112C99.3099 222.692 99.7299 222.137 99.9699 221.447H102.175C101.845 222.632 101.185 223.6 100.195 224.35C99.2049 225.085 97.9749 225.453 96.5049 225.453C95.3349 225.453 94.2849 225.19 93.3549 224.665C92.4399 224.14 91.7199 223.397 91.1949 222.438C90.6699 221.462 90.4074 220.337 90.4074 219.062C90.4074 217.787 90.6624 216.67 91.1724 215.71C91.6824 214.75 92.3949 214.015 93.3099 213.505C94.2399 212.98 95.3049 212.717 96.5049 212.717C97.6749 212.717 98.7099 212.972 99.6099 213.482C100.51 213.992 101.2 214.697 101.68 215.597C102.175 216.482 102.422 217.487 102.422 218.612ZM100.307 218.185C100.307 217.405 100.135 216.737 99.7899 216.182C99.4449 215.612 98.9724 215.185 98.3724 214.9C97.7874 214.6 97.1349 214.45 96.4149 214.45C95.3799 214.45 94.4949 214.78 93.7599 215.44C93.0399 216.1 92.6274 217.015 92.5224 218.185H100.307ZM110.359 219.062C110.359 217.787 110.614 216.677 111.124 215.732C111.634 214.772 112.339 214.03 113.239 213.505C114.154 212.98 115.196 212.717 116.366 212.717C117.881 212.717 119.126 213.085 120.101 213.82C121.091 214.555 121.744 215.575 122.059 216.88H119.854C119.644 216.13 119.231 215.537 118.616 215.102C118.016 214.667 117.266 214.45 116.366 214.45C115.196 214.45 114.251 214.855 113.531 215.665C112.811 216.46 112.451 217.592 112.451 219.062C112.451 220.547 112.811 221.695 113.531 222.505C114.251 223.315 115.196 223.72 116.366 223.72C117.266 223.72 118.016 223.51 118.616 223.09C119.216 222.67 119.629 222.07 119.854 221.29H122.059C121.729 222.55 121.069 223.562 120.079 224.327C119.089 225.077 117.851 225.453 116.366 225.453C115.196 225.453 114.154 225.19 113.239 224.665C112.339 224.14 111.634 223.397 111.124 222.438C110.614 221.477 110.359 220.352 110.359 219.062ZM130.911 212.695C131.841 212.695 132.681 212.897 133.431 213.302C134.181 213.692 134.766 214.285 135.186 215.08C135.621 215.875 135.838 216.842 135.838 217.982V225.25H133.813V218.275C133.813 217.045 133.506 216.107 132.891 215.462C132.276 214.802 131.436 214.472 130.371 214.472C129.291 214.472 128.428 214.81 127.783 215.485C127.153 216.16 126.838 217.142 126.838 218.432V225.25H124.791V208.6H126.838V214.675C127.243 214.045 127.798 213.557 128.503 213.212C129.223 212.867 130.026 212.695 130.911 212.695ZM144.56 225.453C143.405 225.453 142.355 225.19 141.41 224.665C140.48 224.14 139.745 223.397 139.205 222.438C138.68 221.462 138.418 220.337 138.418 219.062C138.418 217.802 138.688 216.692 139.228 215.732C139.783 214.757 140.533 214.015 141.478 213.505C142.423 212.98 143.48 212.717 144.65 212.717C145.82 212.717 146.878 212.98 147.823 213.505C148.768 214.015 149.51 214.75 150.05 215.71C150.605 216.67 150.883 217.787 150.883 219.062C150.883 220.337 150.598 221.462 150.028 222.438C149.473 223.397 148.715 224.14 147.755 224.665C146.795 225.19 145.73 225.453 144.56 225.453ZM144.56 223.652C145.295 223.652 145.985 223.48 146.63 223.135C147.275 222.79 147.793 222.272 148.183 221.582C148.588 220.892 148.79 220.052 148.79 219.062C148.79 218.072 148.595 217.232 148.205 216.542C147.815 215.852 147.305 215.342 146.675 215.012C146.045 214.667 145.363 214.495 144.628 214.495C143.878 214.495 143.188 214.667 142.558 215.012C141.943 215.342 141.448 215.852 141.073 216.542C140.698 217.232 140.51 218.072 140.51 219.062C140.51 220.067 140.69 220.915 141.05 221.605C141.425 222.295 141.92 222.812 142.535 223.157C143.15 223.487 143.825 223.652 144.56 223.652ZM157.94 225.453C156.995 225.453 156.147 225.295 155.397 224.98C154.647 224.65 154.055 224.2 153.62 223.63C153.185 223.045 152.945 222.377 152.9 221.627H155.015C155.075 222.242 155.36 222.745 155.87 223.135C156.395 223.525 157.077 223.72 157.917 223.72C158.697 223.72 159.312 223.547 159.762 223.202C160.212 222.857 160.437 222.422 160.437 221.897C160.437 221.357 160.197 220.96 159.717 220.705C159.237 220.435 158.495 220.172 157.49 219.917C156.575 219.677 155.825 219.437 155.24 219.197C154.67 218.942 154.175 218.575 153.755 218.095C153.35 217.6 153.147 216.955 153.147 216.16C153.147 215.53 153.335 214.952 153.71 214.427C154.085 213.902 154.617 213.49 155.307 213.19C155.997 212.875 156.785 212.717 157.67 212.717C159.035 212.717 160.137 213.062 160.977 213.752C161.817 214.442 162.267 215.387 162.327 216.587H160.28C160.235 215.942 159.972 215.425 159.492 215.035C159.027 214.645 158.397 214.45 157.602 214.45C156.867 214.45 156.282 214.607 155.847 214.922C155.412 215.237 155.195 215.65 155.195 216.16C155.195 216.565 155.322 216.902 155.577 217.172C155.847 217.427 156.177 217.637 156.567 217.802C156.972 217.952 157.527 218.125 158.232 218.32C159.117 218.56 159.837 218.8 160.392 219.04C160.947 219.265 161.42 219.61 161.81 220.075C162.215 220.54 162.425 221.147 162.44 221.897C162.44 222.572 162.252 223.18 161.877 223.72C161.502 224.26 160.97 224.687 160.28 225.002C159.605 225.303 158.825 225.453 157.94 225.453ZM176.58 218.612C176.58 219.002 176.558 219.415 176.513 219.85H166.658C166.733 221.065 167.145 222.017 167.895 222.707C168.66 223.382 169.583 223.72 170.663 223.72C171.548 223.72 172.283 223.517 172.868 223.112C173.468 222.692 173.888 222.137 174.128 221.447H176.333C176.003 222.632 175.343 223.6 174.353 224.35C173.363 225.085 172.133 225.453 170.663 225.453C169.493 225.453 168.443 225.19 167.513 224.665C166.598 224.14 165.878 223.397 165.353 222.438C164.828 221.462 164.565 220.337 164.565 219.062C164.565 217.787 164.82 216.67 165.33 215.71C165.84 214.75 166.553 214.015 167.468 213.505C168.398 212.98 169.463 212.717 170.663 212.717C171.833 212.717 172.868 212.972 173.768 213.482C174.668 213.992 175.358 214.697 175.838 215.597C176.333 216.482 176.58 217.487 176.58 218.612ZM174.465 218.185C174.465 217.405 174.293 216.737 173.948 216.182C173.603 215.612 173.13 215.185 172.53 214.9C171.945 214.6 171.293 214.45 170.573 214.45C169.538 214.45 168.653 214.78 167.918 215.44C167.198 216.1 166.785 217.015 166.68 218.185H174.465ZM185.29 212.695C186.79 212.695 188.005 213.152 188.935 214.067C189.865 214.967 190.33 216.272 190.33 217.982V225.25H188.305V218.275C188.305 217.045 187.998 216.107 187.383 215.462C186.768 214.802 185.928 214.472 184.863 214.472C183.783 214.472 182.92 214.81 182.275 215.485C181.645 216.16 181.33 217.142 181.33 218.432V225.25H179.283V212.92H181.33V214.675C181.735 214.045 182.283 213.557 182.973 213.212C183.678 212.867 184.45 212.695 185.29 212.695Z" fill="#9C9C9C"/>
<rect x="16" y="44.75" width="500" height="70" rx="10" fill="white"/>
<rect x="16.75" y="45.5" width="498.5" height="68.5" rx="9.25" stroke="black" stroke-opacity="0.12" stroke-width="1.5"/>
<path d="M38.53 73.7325V78.975H44.245V80.6625H38.53V86.0625H44.92V87.75H36.4825V72.045H44.92V73.7325H38.53ZM54.0256 75.195C55.5256 75.195 56.7406 75.6525 57.6706 76.5675C58.6006 77.4675 59.0656 78.7725 59.0656 80.4825V87.75H57.0406V80.775C57.0406 79.545 56.7331 78.6075 56.1181 77.9625C55.5031 77.3025 54.6631 76.9725 53.5981 76.9725C52.5181 76.9725 51.6556 77.31 51.0106 77.985C50.3806 78.66 50.0656 79.6425 50.0656 80.9325V87.75H48.0181V75.42H50.0656V77.175C50.4706 76.545 51.0181 76.0575 51.7081 75.7125C52.4131 75.3675 53.1856 75.195 54.0256 75.195ZM64.9077 77.1075V84.375C64.9077 84.975 65.0352 85.4025 65.2902 85.6575C65.5452 85.8975 65.9877 86.0175 66.6177 86.0175H68.1252V87.75H66.2802C65.1402 87.75 64.2852 87.4875 63.7152 86.9625C63.1452 86.4375 62.8602 85.575 62.8602 84.375V77.1075H61.2627V75.42H62.8602V72.315H64.9077V75.42H68.1252V77.1075H64.9077ZM81.856 81.1125C81.856 81.5025 81.8335 81.915 81.7885 82.35H71.9335C72.0085 83.565 72.421 84.5175 73.171 85.2075C73.936 85.8825 74.8585 86.22 75.9385 86.22C76.8235 86.22 77.5585 86.0175 78.1435 85.6125C78.7435 85.1925 79.1635 84.6375 79.4035 83.9475H81.6085C81.2785 85.1325 80.6185 86.1 79.6285 86.85C78.6385 87.585 77.4085 87.9525 75.9385 87.9525C74.7685 87.9525 73.7185 87.69 72.7885 87.165C71.8735 86.64 71.1535 85.8975 70.6285 84.9375C70.1035 83.9625 69.841 82.8375 69.841 81.5625C69.841 80.2875 70.096 79.17 70.606 78.21C71.116 77.25 71.8285 76.515 72.7435 76.005C73.6735 75.48 74.7385 75.2175 75.9385 75.2175C77.1085 75.2175 78.1435 75.4725 79.0435 75.9825C79.9435 76.4925 80.6335 77.1975 81.1135 78.0975C81.6085 78.9825 81.856 79.9875 81.856 81.1125ZM79.741 80.685C79.741 79.905 79.5685 79.2375 79.2235 78.6825C78.8785 78.1125 78.406 77.685 77.806 77.4C77.221 77.1 76.5685 76.95 75.8485 76.95C74.8135 76.95 73.9285 77.28 73.1935 77.94C72.4735 78.6 72.061 79.515 71.956 80.685H79.741ZM86.6062 77.4225C86.9662 76.7175 87.4762 76.17 88.1362 75.78C88.8112 75.39 89.6287 75.195 90.5887 75.195V77.31H90.0487C87.7537 77.31 86.6062 78.555 86.6062 81.045V87.75H84.5587V75.42H86.6062V77.4225ZM101.448 77.1075V84.375C101.448 84.975 101.576 85.4025 101.831 85.6575C102.086 85.8975 102.528 86.0175 103.158 86.0175H104.666V87.75H102.821C101.681 87.75 100.826 87.4875 100.256 86.9625C99.6858 86.4375 99.4008 85.575 99.4008 84.375V77.1075H97.8033V75.42H99.4008V72.315H101.448V75.42H104.666V77.1075H101.448ZM112.524 87.9525C111.369 87.9525 110.319 87.69 109.374 87.165C108.444 86.64 107.709 85.8975 107.169 84.9375C106.644 83.9625 106.382 82.8375 106.382 81.5625C106.382 80.3025 106.652 79.1925 107.192 78.2325C107.747 77.2575 108.497 76.515 109.442 76.005C110.387 75.48 111.444 75.2175 112.614 75.2175C113.784 75.2175 114.842 75.48 115.787 76.005C116.732 76.515 117.474 77.25 118.014 78.21C118.569 79.17 118.847 80.2875 118.847 81.5625C118.847 82.8375 118.562 83.9625 117.992 84.9375C117.437 85.8975 116.679 86.64 115.719 87.165C114.759 87.69 113.694 87.9525 112.524 87.9525ZM112.524 86.1525C113.259 86.1525 113.949 85.98 114.594 85.635C115.239 85.29 115.757 84.7725 116.147 84.0825C116.552 83.3925 116.754 82.5525 116.754 81.5625C116.754 80.5725 116.559 79.7325 116.169 79.0425C115.779 78.3525 115.269 77.8425 114.639 77.5125C114.009 77.1675 113.327 76.995 112.592 76.995C111.842 76.995 111.152 77.1675 110.522 77.5125C109.907 77.8425 109.412 78.3525 109.037 79.0425C108.662 79.7325 108.474 80.5725 108.474 81.5625C108.474 82.5675 108.654 83.415 109.014 84.105C109.389 84.795 109.884 85.3125 110.499 85.6575C111.114 85.9875 111.789 86.1525 112.524 86.1525ZM126.772 81.5625C126.772 80.2875 127.027 79.1775 127.537 78.2325C128.047 77.2725 128.752 76.53 129.652 76.005C130.567 75.48 131.61 75.2175 132.78 75.2175C134.295 75.2175 135.54 75.585 136.515 76.32C137.505 77.055 138.157 78.075 138.472 79.38H136.267C136.057 78.63 135.645 78.0375 135.03 77.6025C134.43 77.1675 133.68 76.95 132.78 76.95C131.61 76.95 130.665 77.355 129.945 78.165C129.225 78.96 128.865 80.0925 128.865 81.5625C128.865 83.0475 129.225 84.195 129.945 85.005C130.665 85.815 131.61 86.22 132.78 86.22C133.68 86.22 134.43 86.01 135.03 85.59C135.63 85.17 136.042 84.57 136.267 83.79H138.472C138.142 85.05 137.482 86.0625 136.492 86.8275C135.502 87.5775 134.265 87.9525 132.78 87.9525C131.61 87.9525 130.567 87.69 129.652 87.165C128.752 86.64 128.047 85.8975 127.537 84.9375C127.027 83.9775 126.772 82.8525 126.772 81.5625ZM146.582 87.9525C145.427 87.9525 144.377 87.69 143.432 87.165C142.502 86.64 141.767 85.8975 141.227 84.9375C140.702 83.9625 140.439 82.8375 140.439 81.5625C140.439 80.3025 140.709 79.1925 141.249 78.2325C141.804 77.2575 142.554 76.515 143.499 76.005C144.444 75.48 145.502 75.2175 146.672 75.2175C147.842 75.2175 148.899 75.48 149.844 76.005C150.789 76.515 151.532 77.25 152.072 78.21C152.627 79.17 152.904 80.2875 152.904 81.5625C152.904 82.8375 152.619 83.9625 152.049 84.9375C151.494 85.8975 150.737 86.64 149.777 87.165C148.817 87.69 147.752 87.9525 146.582 87.9525ZM146.582 86.1525C147.317 86.1525 148.007 85.98 148.652 85.635C149.297 85.29 149.814 84.7725 150.204 84.0825C150.609 83.3925 150.812 82.5525 150.812 81.5625C150.812 80.5725 150.617 79.7325 150.227 79.0425C149.837 78.3525 149.327 77.8425 148.697 77.5125C148.067 77.1675 147.384 76.995 146.649 76.995C145.899 76.995 145.209 77.1675 144.579 77.5125C143.964 77.8425 143.469 78.3525 143.094 79.0425C142.719 79.7325 142.532 80.5725 142.532 81.5625C142.532 82.5675 142.712 83.415 143.072 84.105C143.447 84.795 143.942 85.3125 144.557 85.6575C145.172 85.9875 145.847 86.1525 146.582 86.1525ZM161.604 75.195C163.104 75.195 164.319 75.6525 165.249 76.5675C166.179 77.4675 166.644 78.7725 166.644 80.4825V87.75H164.619V80.775C164.619 79.545 164.311 78.6075 163.696 77.9625C163.081 77.3025 162.241 76.9725 161.176 76.9725C160.096 76.9725 159.234 77.31 158.589 77.985C157.959 78.66 157.644 79.6425 157.644 80.9325V87.75H155.596V75.42H157.644V77.175C158.049 76.545 158.596 76.0575 159.286 75.7125C159.991 75.3675 160.764 75.195 161.604 75.195ZM175.006 77.1075H172.418V87.75H170.371V77.1075H168.773V75.42H170.371V74.5425C170.371 73.1625 170.723 72.1575 171.428 71.5275C172.148 70.8825 173.296 70.56 174.871 70.56V72.27C173.971 72.27 173.333 72.45 172.958 72.81C172.598 73.155 172.418 73.7325 172.418 74.5425V75.42H175.006V77.1075ZM178.451 73.4175C178.061 73.4175 177.731 73.2825 177.461 73.0125C177.191 72.7425 177.056 72.4125 177.056 72.0225C177.056 71.6325 177.191 71.3025 177.461 71.0325C177.731 70.7625 178.061 70.6275 178.451 70.6275C178.826 70.6275 179.141 70.7625 179.396 71.0325C179.666 71.3025 179.801 71.6325 179.801 72.0225C179.801 72.4125 179.666 72.7425 179.396 73.0125C179.141 73.2825 178.826 73.4175 178.451 73.4175ZM179.441 75.42V87.75H177.393V75.42H179.441ZM184.978 77.4225C185.338 76.7175 185.848 76.17 186.508 75.78C187.183 75.39 188 75.195 188.96 75.195V77.31H188.42C186.125 77.31 184.978 78.555 184.978 81.045V87.75H182.93V75.42H184.978V77.4225ZM206.151 75.195C207.111 75.195 207.966 75.3975 208.716 75.8025C209.466 76.1925 210.059 76.785 210.494 77.58C210.929 78.375 211.146 79.3425 211.146 80.4825V87.75H209.121V80.775C209.121 79.545 208.814 78.6075 208.199 77.9625C207.599 77.3025 206.781 76.9725 205.746 76.9725C204.681 76.9725 203.834 77.3175 203.204 78.0075C202.574 78.6825 202.259 79.665 202.259 80.955V87.75H200.234V80.775C200.234 79.545 199.926 78.6075 199.311 77.9625C198.711 77.3025 197.894 76.9725 196.859 76.9725C195.794 76.9725 194.946 77.3175 194.316 78.0075C193.686 78.6825 193.371 79.665 193.371 80.955V87.75H191.324V75.42H193.371V77.1975C193.776 76.5525 194.316 76.0575 194.991 75.7125C195.681 75.3675 196.439 75.195 197.264 75.195C198.299 75.195 199.214 75.4275 200.009 75.8925C200.804 76.3575 201.396 77.04 201.786 77.94C202.131 77.07 202.701 76.395 203.496 75.915C204.291 75.435 205.176 75.195 206.151 75.195ZM222.551 77.6925C222.956 76.9875 223.556 76.4025 224.351 75.9375C225.161 75.4575 226.098 75.2175 227.163 75.2175C228.258 75.2175 229.248 75.48 230.133 76.005C231.033 76.53 231.738 77.2725 232.248 78.2325C232.758 79.1775 233.013 80.28 233.013 81.54C233.013 82.785 232.758 83.895 232.248 84.87C231.738 85.845 231.033 86.6025 230.133 87.1425C229.248 87.6825 228.258 87.9525 227.163 87.9525C226.113 87.9525 225.183 87.72 224.373 87.255C223.578 86.775 222.971 86.1825 222.551 85.4775V93.6H220.503V75.42H222.551V77.6925ZM230.921 81.54C230.921 80.61 230.733 79.8 230.358 79.11C229.983 78.42 229.473 77.895 228.828 77.535C228.198 77.175 227.501 76.995 226.736 76.995C225.986 76.995 225.288 77.1825 224.643 77.5575C224.013 77.9175 223.503 78.45 223.113 79.155C222.738 79.845 222.551 80.6475 222.551 81.5625C222.551 82.4925 222.738 83.31 223.113 84.015C223.503 84.705 224.013 85.2375 224.643 85.6125C225.288 85.9725 225.986 86.1525 226.736 86.1525C227.501 86.1525 228.198 85.9725 228.828 85.6125C229.473 85.2375 229.983 84.705 230.358 84.015C230.733 83.31 230.921 82.485 230.921 81.54ZM234.944 81.54C234.944 80.28 235.199 79.1775 235.709 78.2325C236.219 77.2725 236.916 76.53 237.801 76.005C238.701 75.48 239.699 75.2175 240.794 75.2175C241.874 75.2175 242.811 75.45 243.606 75.915C244.401 76.38 244.994 76.965 245.384 77.67V75.42H247.454V87.75H245.384V85.455C244.979 86.175 244.371 86.775 243.561 87.255C242.766 87.72 241.836 87.9525 240.771 87.9525C239.676 87.9525 238.686 87.6825 237.801 87.1425C236.916 86.6025 236.219 85.845 235.709 84.87C235.199 83.895 234.944 82.785 234.944 81.54ZM245.384 81.5625C245.384 80.6325 245.196 79.8225 244.821 79.1325C244.446 78.4425 243.936 77.9175 243.291 77.5575C242.661 77.1825 241.964 76.995 241.199 76.995C240.434 76.995 239.736 77.175 239.106 77.535C238.476 77.895 237.974 78.42 237.599 79.11C237.224 79.8 237.036 80.61 237.036 81.54C237.036 82.485 237.224 83.31 237.599 84.015C237.974 84.705 238.476 85.2375 239.106 85.6125C239.736 85.9725 240.434 86.1525 241.199 86.1525C241.964 86.1525 242.661 85.9725 243.291 85.6125C243.936 85.2375 244.446 84.705 244.821 84.015C245.196 83.31 245.384 82.4925 245.384 81.5625ZM255.279 87.9525C254.334 87.9525 253.486 87.795 252.736 87.48C251.986 87.15 251.394 86.7 250.959 86.13C250.524 85.545 250.284 84.8775 250.239 84.1275H252.354C252.414 84.7425 252.699 85.245 253.209 85.635C253.734 86.025 254.416 86.22 255.256 86.22C256.036 86.22 256.651 86.0475 257.101 85.7025C257.551 85.3575 257.776 84.9225 257.776 84.3975C257.776 83.8575 257.536 83.46 257.056 83.205C256.576 82.935 255.834 82.6725 254.829 82.4175C253.914 82.1775 253.164 81.9375 252.579 81.6975C252.009 81.4425 251.514 81.075 251.094 80.595C250.689 80.1 250.486 79.455 250.486 78.66C250.486 78.03 250.674 77.4525 251.049 76.9275C251.424 76.4025 251.956 75.99 252.646 75.69C253.336 75.375 254.124 75.2175 255.009 75.2175C256.374 75.2175 257.476 75.5625 258.316 76.2525C259.156 76.9425 259.606 77.8875 259.666 79.0875H257.619C257.574 78.4425 257.311 77.925 256.831 77.535C256.366 77.145 255.736 76.95 254.941 76.95C254.206 76.95 253.621 77.1075 253.186 77.4225C252.751 77.7375 252.534 78.15 252.534 78.66C252.534 79.065 252.661 79.4025 252.916 79.6725C253.186 79.9275 253.516 80.1375 253.906 80.3025C254.311 80.4525 254.866 80.625 255.571 80.82C256.456 81.06 257.176 81.3 257.731 81.54C258.286 81.765 258.759 82.11 259.149 82.575C259.554 83.04 259.764 83.6475 259.779 84.3975C259.779 85.0725 259.591 85.68 259.216 86.22C258.841 86.76 258.309 87.1875 257.619 87.5025C256.944 87.8025 256.164 87.9525 255.279 87.9525ZM267.034 87.9525C266.089 87.9525 265.242 87.795 264.492 87.48C263.742 87.15 263.149 86.7 262.714 86.13C262.279 85.545 262.039 84.8775 261.994 84.1275H264.109C264.169 84.7425 264.454 85.245 264.964 85.635C265.489 86.025 266.172 86.22 267.012 86.22C267.792 86.22 268.407 86.0475 268.857 85.7025C269.307 85.3575 269.532 84.9225 269.532 84.3975C269.532 83.8575 269.292 83.46 268.812 83.205C268.332 82.935 267.589 82.6725 266.584 82.4175C265.669 82.1775 264.919 81.9375 264.334 81.6975C263.764 81.4425 263.269 81.075 262.849 80.595C262.444 80.1 262.242 79.455 262.242 78.66C262.242 78.03 262.429 77.4525 262.804 76.9275C263.179 76.4025 263.712 75.99 264.402 75.69C265.092 75.375 265.879 75.2175 266.764 75.2175C268.129 75.2175 269.232 75.5625 270.072 76.2525C270.912 76.9425 271.362 77.8875 271.422 79.0875H269.374C269.329 78.4425 269.067 77.925 268.587 77.535C268.122 77.145 267.492 76.95 266.697 76.95C265.962 76.95 265.377 77.1075 264.942 77.4225C264.507 77.7375 264.289 78.15 264.289 78.66C264.289 79.065 264.417 79.4025 264.672 79.6725C264.942 79.9275 265.272 80.1375 265.662 80.3025C266.067 80.4525 266.622 80.625 267.327 80.82C268.212 81.06 268.932 81.3 269.487 81.54C270.042 81.765 270.514 82.11 270.904 82.575C271.309 83.04 271.519 83.6475 271.534 84.3975C271.534 85.0725 271.347 85.68 270.972 86.22C270.597 86.76 270.064 87.1875 269.374 87.5025C268.699 87.8025 267.919 87.9525 267.034 87.9525ZM290.849 75.42L287.002 87.75H284.887L281.917 77.9625L278.947 87.75H276.832L272.962 75.42H275.054L277.889 85.77L280.949 75.42H283.042L286.034 85.7925L288.824 75.42H290.849ZM298.259 87.9525C297.104 87.9525 296.054 87.69 295.109 87.165C294.179 86.64 293.444 85.8975 292.904 84.9375C292.379 83.9625 292.116 82.8375 292.116 81.5625C292.116 80.3025 292.386 79.1925 292.926 78.2325C293.481 77.2575 294.231 76.515 295.176 76.005C296.121 75.48 297.179 75.2175 298.349 75.2175C299.519 75.2175 300.576 75.48 301.521 76.005C302.466 76.515 303.209 77.25 303.749 78.21C304.304 79.17 304.581 80.2875 304.581 81.5625C304.581 82.8375 304.296 83.9625 303.726 84.9375C303.171 85.8975 302.414 86.64 301.454 87.165C300.494 87.69 299.429 87.9525 298.259 87.9525ZM298.259 86.1525C298.994 86.1525 299.684 85.98 300.329 85.635C300.974 85.29 301.491 84.7725 301.881 84.0825C302.286 83.3925 302.489 82.5525 302.489 81.5625C302.489 80.5725 302.294 79.7325 301.904 79.0425C301.514 78.3525 301.004 77.8425 300.374 77.5125C299.744 77.1675 299.061 76.995 298.326 76.995C297.576 76.995 296.886 77.1675 296.256 77.5125C295.641 77.8425 295.146 78.3525 294.771 79.0425C294.396 79.7325 294.209 80.5725 294.209 81.5625C294.209 82.5675 294.389 83.415 294.749 84.105C295.124 84.795 295.619 85.3125 296.234 85.6575C296.849 85.9875 297.524 86.1525 298.259 86.1525ZM309.321 77.4225C309.681 76.7175 310.191 76.17 310.851 75.78C311.526 75.39 312.344 75.195 313.304 75.195V77.31H312.764C310.469 77.31 309.321 78.555 309.321 81.045V87.75H307.274V75.42H309.321V77.4225ZM314.902 81.54C314.902 80.28 315.157 79.1775 315.667 78.2325C316.177 77.2725 316.875 76.53 317.76 76.005C318.66 75.48 319.665 75.2175 320.775 75.2175C321.735 75.2175 322.627 75.4425 323.452 75.8925C324.277 76.3275 324.907 76.905 325.342 77.625V71.1H327.412V87.75H325.342V85.4325C324.937 86.1675 324.337 86.775 323.542 87.255C322.747 87.72 321.817 87.9525 320.752 87.9525C319.657 87.9525 318.66 87.6825 317.76 87.1425C316.875 86.6025 316.177 85.845 315.667 84.87C315.157 83.895 314.902 82.785 314.902 81.54ZM325.342 81.5625C325.342 80.6325 325.155 79.8225 324.78 79.1325C324.405 78.4425 323.895 77.9175 323.25 77.5575C322.62 77.1825 321.922 76.995 321.157 76.995C320.392 76.995 319.695 77.175 319.065 77.535C318.435 77.895 317.932 78.42 317.557 79.11C317.182 79.8 316.995 80.61 316.995 81.54C316.995 82.485 317.182 83.31 317.557 84.015C317.932 84.705 318.435 85.2375 319.065 85.6125C319.695 85.9725 320.392 86.1525 321.157 86.1525C321.922 86.1525 322.62 85.9725 323.25 85.6125C323.895 85.2375 324.405 84.705 324.78 84.015C325.155 83.31 325.342 82.4925 325.342 81.5625Z" fill="#9C9C9C"/>
<rect x="16" y="282.25" width="500" height="70" rx="10" fill="#7392F9"/>
<path d="M230.34 325.408C229.29 325.408 228.345 325.227 227.505 324.867C226.665 324.492 226.005 323.967 225.525 323.292C225.045 322.617 224.805 321.83 224.805 320.93H227.55C227.61 321.605 227.873 322.16 228.338 322.595C228.818 323.03 229.485 323.247 230.34 323.247C231.225 323.247 231.915 323.037 232.41 322.617C232.905 322.182 233.153 321.627 233.153 320.952C233.153 320.427 232.995 320 232.68 319.67C232.38 319.34 231.998 319.085 231.533 318.905C231.083 318.725 230.453 318.53 229.643 318.32C228.623 318.05 227.79 317.78 227.145 317.51C226.515 317.225 225.975 316.79 225.525 316.205C225.075 315.62 224.85 314.84 224.85 313.865C224.85 312.965 225.075 312.177 225.525 311.502C225.975 310.827 226.605 310.31 227.415 309.95C228.225 309.59 229.163 309.41 230.228 309.41C231.743 309.41 232.98 309.792 233.94 310.557C234.915 311.307 235.455 312.342 235.56 313.662H232.725C232.68 313.092 232.41 312.605 231.915 312.2C231.42 311.795 230.768 311.592 229.958 311.592C229.223 311.592 228.623 311.78 228.158 312.155C227.693 312.53 227.46 313.07 227.46 313.775C227.46 314.255 227.603 314.652 227.888 314.967C228.188 315.267 228.563 315.507 229.013 315.687C229.463 315.867 230.078 316.062 230.858 316.272C231.893 316.557 232.733 316.842 233.378 317.127C234.038 317.412 234.593 317.855 235.043 318.455C235.508 319.04 235.74 319.827 235.74 320.817C235.74 321.612 235.523 322.362 235.088 323.067C234.668 323.772 234.045 324.342 233.22 324.777C232.41 325.197 231.45 325.408 230.34 325.408ZM240.072 311.21C239.607 311.21 239.217 311.052 238.902 310.737C238.587 310.422 238.429 310.032 238.429 309.567C238.429 309.102 238.587 308.712 238.902 308.397C239.217 308.082 239.607 307.925 240.072 307.925C240.522 307.925 240.904 308.082 241.219 308.397C241.534 308.712 241.692 309.102 241.692 309.567C241.692 310.032 241.534 310.422 241.219 310.737C240.904 311.052 240.522 311.21 240.072 311.21ZM241.332 312.853V325.25H238.767V312.853H241.332ZM249.694 312.65C250.654 312.65 251.502 312.845 252.237 313.235C252.987 313.61 253.572 314.082 253.992 314.652V312.853H256.579V325.453C256.579 326.593 256.339 327.605 255.859 328.49C255.379 329.39 254.682 330.095 253.767 330.605C252.867 331.115 251.787 331.37 250.527 331.37C248.847 331.37 247.452 330.973 246.342 330.178C245.232 329.398 244.602 328.333 244.452 326.983H246.994C247.189 327.628 247.602 328.145 248.232 328.535C248.877 328.94 249.642 329.143 250.527 329.143C251.562 329.143 252.394 328.828 253.024 328.198C253.669 327.568 253.992 326.653 253.992 325.453V323.382C253.557 323.967 252.964 324.462 252.214 324.867C251.479 325.258 250.639 325.453 249.694 325.453C248.614 325.453 247.624 325.183 246.724 324.642C245.839 324.087 245.134 323.322 244.609 322.347C244.099 321.357 243.844 320.24 243.844 318.995C243.844 317.75 244.099 316.647 244.609 315.687C245.134 314.727 245.839 313.985 246.724 313.46C247.624 312.92 248.614 312.65 249.694 312.65ZM253.992 319.04C253.992 318.185 253.812 317.442 253.452 316.812C253.107 316.182 252.649 315.702 252.079 315.372C251.509 315.042 250.894 314.877 250.234 314.877C249.574 314.877 248.959 315.042 248.389 315.372C247.819 315.687 247.354 316.16 246.994 316.79C246.649 317.405 246.477 318.14 246.477 318.995C246.477 319.85 246.649 320.6 246.994 321.245C247.354 321.89 247.819 322.385 248.389 322.73C248.974 323.06 249.589 323.225 250.234 323.225C250.894 323.225 251.509 323.06 252.079 322.73C252.649 322.4 253.107 321.92 253.452 321.29C253.812 320.645 253.992 319.895 253.992 319.04ZM266.203 312.65C267.178 312.65 268.048 312.852 268.813 313.257C269.593 313.662 270.201 314.262 270.636 315.057C271.071 315.852 271.288 316.812 271.288 317.937V325.25H268.746V318.32C268.746 317.21 268.468 316.362 267.913 315.777C267.358 315.177 266.601 314.877 265.641 314.877C264.681 314.877 263.916 315.177 263.346 315.777C262.791 316.362 262.513 317.21 262.513 318.32V325.25H259.948V312.853H262.513V314.27C262.933 313.76 263.466 313.362 264.111 313.077C264.771 312.792 265.468 312.65 266.203 312.65ZM282.947 309.612V319.58C282.947 320.765 283.255 321.657 283.87 322.257C284.5 322.857 285.37 323.157 286.48 323.157C287.605 323.157 288.475 322.857 289.09 322.257C289.72 321.657 290.035 320.765 290.035 319.58V309.612H292.6V319.535C292.6 320.81 292.322 321.89 291.767 322.775C291.212 323.66 290.47 324.32 289.54 324.755C288.61 325.19 287.582 325.408 286.457 325.408C285.332 325.408 284.305 325.19 283.375 324.755C282.46 324.32 281.732 323.66 281.192 322.775C280.652 321.89 280.382 320.81 280.382 319.535V309.612H282.947ZM298.504 314.675C298.939 314.105 299.532 313.625 300.282 313.235C301.032 312.845 301.879 312.65 302.824 312.65C303.904 312.65 304.887 312.92 305.772 313.46C306.672 313.985 307.377 314.727 307.887 315.687C308.397 316.647 308.652 317.75 308.652 318.995C308.652 320.24 308.397 321.357 307.887 322.347C307.377 323.322 306.672 324.087 305.772 324.642C304.887 325.183 303.904 325.453 302.824 325.453C301.879 325.453 301.039 325.265 300.304 324.89C299.569 324.5 298.969 324.02 298.504 323.45V331.145H295.939V312.853H298.504V314.675ZM306.042 318.995C306.042 318.14 305.862 317.405 305.502 316.79C305.157 316.16 304.692 315.687 304.107 315.372C303.537 315.042 302.922 314.877 302.262 314.877C301.617 314.877 301.002 315.042 300.417 315.372C299.847 315.702 299.382 316.182 299.022 316.812C298.677 317.442 298.504 318.185 298.504 319.04C298.504 319.895 298.677 320.645 299.022 321.29C299.382 321.92 299.847 322.4 300.417 322.73C301.002 323.06 301.617 323.225 302.262 323.225C302.922 323.225 303.537 323.06 304.107 322.73C304.692 322.385 305.157 321.89 305.502 321.245C305.862 320.6 306.042 319.85 306.042 318.995Z" fill="white"/>
<rect x="-18.5" y="138.5" width="569" height="127" stroke="#E74929" stroke-width="3"/>
</g>
<path d="M153.532 9.32V19.952C153.532 21.216 153.86 22.168 154.516 22.808C155.188 23.448 156.116 23.768 157.3 23.768C158.5 23.768 159.428 23.448 160.084 22.808C160.756 22.168 161.092 21.216 161.092 19.952V9.32H163.828V19.904C163.828 21.264 163.532 22.416 162.94 23.36C162.348 24.304 161.556 25.008 160.564 25.472C159.572 25.936 158.476 26.168 157.276 26.168C156.076 26.168 154.98 25.936 153.988 25.472C153.012 25.008 152.236 24.304 151.66 23.36C151.084 22.416 150.796 21.264 150.796 19.904V9.32H153.532ZM170.126 14.72C170.59 14.112 171.222 13.6 172.022 13.184C172.822 12.768 173.726 12.56 174.734 12.56C175.886 12.56 176.934 12.848 177.878 13.424C178.838 13.984 179.59 14.776 180.134 15.8C180.678 16.824 180.95 18 180.95 19.328C180.95 20.656 180.678 21.848 180.134 22.904C179.59 23.944 178.838 24.76 177.878 25.352C176.934 25.928 175.886 26.216 174.734 26.216C173.726 26.216 172.83 26.016 172.046 25.616C171.262 25.2 170.622 24.688 170.126 24.08V32.288H167.39V12.776H170.126V14.72ZM178.166 19.328C178.166 18.416 177.974 17.632 177.59 16.976C177.222 16.304 176.726 15.8 176.102 15.464C175.494 15.112 174.838 14.936 174.134 14.936C173.446 14.936 172.79 15.112 172.166 15.464C171.558 15.816 171.062 16.328 170.678 17C170.31 17.672 170.126 18.464 170.126 19.376C170.126 20.288 170.31 21.088 170.678 21.776C171.062 22.448 171.558 22.96 172.166 23.312C172.79 23.664 173.446 23.84 174.134 23.84C174.838 23.84 175.494 23.664 176.102 23.312C176.726 22.944 177.222 22.416 177.59 21.728C177.974 21.04 178.166 20.24 178.166 19.328ZM186.391 8.24V26H183.655V8.24H186.391ZM195.72 26.216C194.472 26.216 193.344 25.936 192.336 25.376C191.328 24.8 190.536 24 189.96 22.976C189.384 21.936 189.096 20.736 189.096 19.376C189.096 18.032 189.392 16.84 189.984 15.8C190.576 14.76 191.384 13.96 192.408 13.4C193.432 12.84 194.576 12.56 195.84 12.56C197.104 12.56 198.248 12.84 199.272 13.4C200.296 13.96 201.104 14.76 201.696 15.8C202.288 16.84 202.584 18.032 202.584 19.376C202.584 20.72 202.28 21.912 201.672 22.952C201.064 23.992 200.232 24.8 199.176 25.376C198.136 25.936 196.984 26.216 195.72 26.216ZM195.72 23.84C196.424 23.84 197.08 23.672 197.688 23.336C198.312 23 198.816 22.496 199.2 21.824C199.584 21.152 199.776 20.336 199.776 19.376C199.776 18.416 199.592 17.608 199.224 16.952C198.856 16.28 198.368 15.776 197.76 15.44C197.152 15.104 196.496 14.936 195.792 14.936C195.088 14.936 194.432 15.104 193.824 15.44C193.232 15.776 192.76 16.28 192.408 16.952C192.056 17.608 191.88 18.416 191.88 19.376C191.88 20.8 192.24 21.904 192.96 22.688C193.696 23.456 194.616 23.84 195.72 23.84ZM204.376 19.328C204.376 18 204.648 16.824 205.192 15.8C205.752 14.776 206.504 13.984 207.448 13.424C208.408 12.848 209.464 12.56 210.616 12.56C211.656 12.56 212.56 12.768 213.328 13.184C214.112 13.584 214.736 14.088 215.2 14.696V12.776H217.96V26H215.2V24.032C214.736 24.656 214.104 25.176 213.304 25.592C212.504 26.008 211.592 26.216 210.568 26.216C209.432 26.216 208.392 25.928 207.448 25.352C206.504 24.76 205.752 23.944 205.192 22.904C204.648 21.848 204.376 20.656 204.376 19.328ZM215.2 19.376C215.2 18.464 215.008 17.672 214.624 17C214.256 16.328 213.768 15.816 213.16 15.464C212.552 15.112 211.896 14.936 211.192 14.936C210.488 14.936 209.832 15.112 209.224 15.464C208.616 15.8 208.12 16.304 207.736 16.976C207.368 17.632 207.184 18.416 207.184 19.328C207.184 20.24 207.368 21.04 207.736 21.728C208.12 22.416 208.616 22.944 209.224 23.312C209.848 23.664 210.504 23.84 211.192 23.84C211.896 23.84 212.552 23.664 213.16 23.312C213.768 22.96 214.256 22.448 214.624 21.776C215.008 21.088 215.2 20.288 215.2 19.376ZM220.642 19.328C220.642 18 220.914 16.824 221.458 15.8C222.018 14.776 222.77 13.984 223.714 13.424C224.674 12.848 225.738 12.56 226.906 12.56C227.77 12.56 228.618 12.752 229.45 13.136C230.298 13.504 230.97 14 231.466 14.624V8.24H234.226V26H231.466V24.008C231.018 24.648 230.394 25.176 229.594 25.592C228.81 26.008 227.906 26.216 226.882 26.216C225.73 26.216 224.674 25.928 223.714 25.352C222.77 24.76 222.018 23.944 221.458 22.904C220.914 21.848 220.642 20.656 220.642 19.328ZM231.466 19.376C231.466 18.464 231.274 17.672 230.89 17C230.522 16.328 230.034 15.816 229.426 15.464C228.818 15.112 228.162 14.936 227.458 14.936C226.754 14.936 226.098 15.112 225.49 15.464C224.882 15.8 224.386 16.304 224.002 16.976C223.634 17.632 223.45 18.416 223.45 19.328C223.45 20.24 223.634 21.04 224.002 21.728C224.386 22.416 224.882 22.944 225.49 23.312C226.114 23.664 226.77 23.84 227.458 23.84C228.162 23.84 228.818 23.664 229.426 23.312C230.034 22.96 230.522 22.448 230.89 21.776C231.274 21.088 231.466 20.288 231.466 19.376ZM249.55 26.168C248.43 26.168 247.422 25.976 246.526 25.592C245.63 25.192 244.926 24.632 244.414 23.912C243.902 23.192 243.646 22.352 243.646 21.392H246.574C246.638 22.112 246.918 22.704 247.414 23.168C247.926 23.632 248.638 23.864 249.55 23.864C250.494 23.864 251.23 23.64 251.758 23.192C252.286 22.728 252.55 22.136 252.55 21.416C252.55 20.856 252.382 20.4 252.046 20.048C251.726 19.696 251.318 19.424 250.822 19.232C250.342 19.04 249.67 18.832 248.806 18.608C247.718 18.32 246.83 18.032 246.142 17.744C245.47 17.44 244.894 16.976 244.414 16.352C243.934 15.728 243.694 14.896 243.694 13.856C243.694 12.896 243.934 12.056 244.414 11.336C244.894 10.616 245.566 10.064 246.43 9.68C247.294 9.296 248.294 9.104 249.43 9.104C251.046 9.104 252.366 9.512 253.39 10.328C254.43 11.128 255.006 12.232 255.118 13.64H252.094C252.046 13.032 251.758 12.512 251.23 12.08C250.702 11.648 250.006 11.432 249.142 11.432C248.358 11.432 247.718 11.632 247.222 12.032C246.726 12.432 246.478 13.008 246.478 13.76C246.478 14.272 246.63 14.696 246.934 15.032C247.254 15.352 247.654 15.608 248.134 15.8C248.614 15.992 249.27 16.2 250.102 16.424C251.206 16.728 252.102 17.032 252.79 17.336C253.494 17.64 254.086 18.112 254.566 18.752C255.062 19.376 255.31 20.216 255.31 21.272C255.31 22.12 255.078 22.92 254.614 23.672C254.166 24.424 253.502 25.032 252.622 25.496C251.758 25.944 250.734 26.168 249.55 26.168ZM257.626 19.376C257.626 18.016 257.898 16.824 258.442 15.8C259.002 14.76 259.77 13.96 260.746 13.4C261.722 12.84 262.842 12.56 264.106 12.56C265.706 12.56 267.026 12.944 268.066 13.712C269.122 14.464 269.834 15.544 270.202 16.952H267.25C267.01 16.296 266.626 15.784 266.098 15.416C265.57 15.048 264.906 14.864 264.106 14.864C262.986 14.864 262.09 15.264 261.418 16.064C260.762 16.848 260.434 17.952 260.434 19.376C260.434 20.8 260.762 21.912 261.418 22.712C262.09 23.512 262.986 23.912 264.106 23.912C265.69 23.912 266.738 23.216 267.25 21.824H270.202C269.818 23.168 269.098 24.24 268.042 25.04C266.986 25.824 265.674 26.216 264.106 26.216C262.842 26.216 261.722 25.936 260.746 25.376C259.77 24.8 259.002 24 258.442 22.976C257.898 21.936 257.626 20.736 257.626 19.376ZM275.665 14.696C276.065 14.024 276.593 13.504 277.249 13.136C277.921 12.752 278.713 12.56 279.625 12.56V15.392H278.929C277.857 15.392 277.041 15.664 276.481 16.208C275.937 16.752 275.665 17.696 275.665 19.04V26H272.929V12.776H275.665V14.696ZM294.26 19.064C294.26 19.56 294.228 20.008 294.164 20.408H284.06C284.14 21.464 284.532 22.312 285.236 22.952C285.94 23.592 286.804 23.912 287.828 23.912C289.3 23.912 290.34 23.296 290.948 22.064H293.9C293.5 23.28 292.772 24.28 291.716 25.064C290.676 25.832 289.38 26.216 287.828 26.216C286.564 26.216 285.428 25.936 284.42 25.376C283.428 24.8 282.644 24 282.068 22.976C281.508 21.936 281.228 20.736 281.228 19.376C281.228 18.016 281.5 16.824 282.044 15.8C282.604 14.76 283.38 13.96 284.372 13.4C285.38 12.84 286.532 12.56 287.828 12.56C289.076 12.56 290.188 12.832 291.164 13.376C292.14 13.92 292.9 14.688 293.444 15.68C293.988 16.656 294.26 17.784 294.26 19.064ZM291.404 18.2C291.388 17.192 291.028 16.384 290.324 15.776C289.62 15.168 288.748 14.864 287.708 14.864C286.764 14.864 285.956 15.168 285.284 15.776C284.612 16.368 284.212 17.176 284.084 18.2H291.404ZM309.072 19.064C309.072 19.56 309.04 20.008 308.976 20.408H298.872C298.952 21.464 299.344 22.312 300.048 22.952C300.752 23.592 301.616 23.912 302.64 23.912C304.112 23.912 305.152 23.296 305.76 22.064H308.712C308.312 23.28 307.584 24.28 306.528 25.064C305.488 25.832 304.192 26.216 302.64 26.216C301.376 26.216 300.24 25.936 299.232 25.376C298.24 24.8 297.456 24 296.88 22.976C296.32 21.936 296.04 20.736 296.04 19.376C296.04 18.016 296.312 16.824 296.856 15.8C297.416 14.76 298.192 13.96 299.184 13.4C300.192 12.84 301.344 12.56 302.64 12.56C303.888 12.56 305 12.832 305.976 13.376C306.952 13.92 307.712 14.688 308.256 15.68C308.8 16.656 309.072 17.784 309.072 19.064ZM306.216 18.2C306.2 17.192 305.84 16.384 305.136 15.776C304.432 15.168 303.56 14.864 302.52 14.864C301.576 14.864 300.768 15.168 300.096 15.776C299.424 16.368 299.024 17.176 298.896 18.2H306.216ZM318.437 12.56C319.477 12.56 320.405 12.776 321.221 13.208C322.053 13.64 322.701 14.28 323.165 15.128C323.629 15.976 323.861 17 323.861 18.2V26H321.149V18.608C321.149 17.424 320.853 16.52 320.261 15.896C319.669 15.256 318.861 14.936 317.837 14.936C316.813 14.936 315.997 15.256 315.389 15.896C314.797 16.52 314.501 17.424 314.501 18.608V26H311.765V12.776H314.501V14.288C314.949 13.744 315.517 13.32 316.205 13.016C316.909 12.712 317.653 12.56 318.437 12.56ZM332.151 26.216C331.111 26.216 330.175 26.032 329.343 25.664C328.527 25.28 327.879 24.768 327.399 24.128C326.919 23.472 326.663 22.744 326.631 21.944H329.463C329.511 22.504 329.775 22.976 330.255 23.36C330.751 23.728 331.367 23.912 332.103 23.912C332.871 23.912 333.463 23.768 333.879 23.48C334.311 23.176 334.527 22.792 334.527 22.328C334.527 21.832 334.287 21.464 333.807 21.224C333.343 20.984 332.599 20.72 331.575 20.432C330.583 20.16 329.775 19.896 329.151 19.64C328.527 19.384 327.983 18.992 327.519 18.464C327.071 17.936 326.847 17.24 326.847 16.376C326.847 15.672 327.055 15.032 327.471 14.456C327.887 13.864 328.479 13.4 329.247 13.064C330.031 12.728 330.927 12.56 331.935 12.56C333.439 12.56 334.647 12.944 335.559 13.712C336.487 14.464 336.983 15.496 337.047 16.808H334.311C334.263 16.216 334.023 15.744 333.591 15.392C333.159 15.04 332.575 14.864 331.839 14.864C331.119 14.864 330.567 15 330.183 15.272C329.799 15.544 329.607 15.904 329.607 16.352C329.607 16.704 329.735 17 329.991 17.24C330.247 17.48 330.559 17.672 330.927 17.816C331.295 17.944 331.839 18.112 332.559 18.32C333.519 18.576 334.303 18.84 334.911 19.112C335.535 19.368 336.071 19.752 336.519 20.264C336.967 20.776 337.199 21.456 337.215 22.304C337.215 23.056 337.007 23.728 336.591 24.32C336.175 24.912 335.583 25.376 334.815 25.712C334.063 26.048 333.175 26.216 332.151 26.216ZM347.011 12.56C348.019 12.56 348.915 12.776 349.699 13.208C350.499 13.64 351.123 14.28 351.571 15.128C352.035 15.976 352.267 17 352.267 18.2V26H349.555V18.608C349.555 17.424 349.259 16.52 348.667 15.896C348.075 15.256 347.267 14.936 346.243 14.936C345.219 14.936 344.403 15.256 343.795 15.896C343.203 16.52 342.907 17.424 342.907 18.608V26H340.171V8.24H342.907V14.312C343.371 13.752 343.955 13.32 344.659 13.016C345.379 12.712 346.163 12.56 347.011 12.56ZM361.493 26.216C360.245 26.216 359.117 25.936 358.109 25.376C357.101 24.8 356.309 24 355.733 22.976C355.157 21.936 354.869 20.736 354.869 19.376C354.869 18.032 355.165 16.84 355.757 15.8C356.349 14.76 357.157 13.96 358.181 13.4C359.205 12.84 360.349 12.56 361.613 12.56C362.877 12.56 364.021 12.84 365.045 13.4C366.069 13.96 366.877 14.76 367.469 15.8C368.061 16.84 368.357 18.032 368.357 19.376C368.357 20.72 368.053 21.912 367.445 22.952C366.837 23.992 366.005 24.8 364.949 25.376C363.909 25.936 362.757 26.216 361.493 26.216ZM361.493 23.84C362.197 23.84 362.853 23.672 363.461 23.336C364.085 23 364.589 22.496 364.973 21.824C365.357 21.152 365.549 20.336 365.549 19.376C365.549 18.416 365.365 17.608 364.997 16.952C364.629 16.28 364.141 15.776 363.533 15.44C362.925 15.104 362.269 14.936 361.565 14.936C360.861 14.936 360.205 15.104 359.597 15.44C359.005 15.776 358.533 16.28 358.181 16.952C357.829 17.608 357.653 18.416 357.653 19.376C357.653 20.8 358.013 21.904 358.733 22.688C359.469 23.456 360.389 23.84 361.493 23.84ZM374.254 15.008V22.328C374.254 22.824 374.366 23.184 374.59 23.408C374.83 23.616 375.23 23.72 375.79 23.72H377.47V26H375.31C374.078 26 373.134 25.712 372.478 25.136C371.822 24.56 371.494 23.624 371.494 22.328V15.008H369.934V12.776H371.494V9.488H374.254V12.776H377.47V15.008H374.254ZM381.095 26.168C380.599 26.168 380.183 26 379.847 25.664C379.511 25.328 379.343 24.912 379.343 24.416C379.343 23.92 379.511 23.504 379.847 23.168C380.183 22.832 380.599 22.664 381.095 22.664C381.575 22.664 381.983 22.832 382.319 23.168C382.655 23.504 382.823 23.92 382.823 24.416C382.823 24.912 382.655 25.328 382.319 25.664C381.983 26 381.575 26.168 381.095 26.168Z" fill="#363636"/>
<path d="M389.736 36.1319C389.626 36.5399 391.744 37.2236 391.751 37.2278C408.718 44.2119 425.847 51.897 439.232 64.785C453.153 78.1947 460.07 96.3802 460.608 115.561C460.78 121.466 460.366 127.37 459.534 133.196L449.211 130.914L460.134 168.511L486.766 139.242L474.32 136.486C476.288 121.803 475.568 106.791 470.15 92.8125C463.334 75.186 448.822 62.7831 432.954 53.179C414.134 41.7839 389.847 35.7238 389.736 36.1319Z" fill="#E74929"/>
<defs>
<clipPath id="clip0_352_43">
<rect y="86" width="532" height="310" rx="20" fill="white"/>
</clipPath>
</defs>
</svg>
